<svg xmlns="http://www.w3.org/2000/svg" width="370" height="223" viewBox="0 0 370 223">
    <g fill="none" fill-rule="evenodd" transform="translate(-34 -53)">
        <path fill="#F2F2F2" fill-rule="nonzero" d="M285.803 180.059l3.17-.548c.305-.054.607-.119.91-.174-10.335-6.413-14.847-19.129-10.866-30.62s15.394-18.692 27.484-17.34l-4.156 9.884 9.846-8.594c.023.006.045.013.067.023 6.51 2.292 11.844 7.076 14.826 13.3 2.983 6.224 3.37 13.377 1.076 19.885-.165.47-.36.917-.549 1.37 2.78-1.396 5.446-3.022 7.62-5.103 4.402-4.216 6.814-10.035 9.509-17.204 5.34-14.207 10.48-28.62 15.416-43.063-11.246-6.083-16.402-19.435-12.163-31.495.265-.751.571-1.474.896-2.185.081-.177.163-.354.248-.53.33-.68.678-1.347 1.06-1.988.063-.105.133-.203.197-.307.333-.54.684-1.064 1.053-1.571.137-.191.274-.381.416-.568.419-.546.852-1.079 1.309-1.587.153-.17.315-.329.471-.494.351-.37.712-.73 1.082-1.077.196-.184.389-.368.589-.545.051-.045.1-.094.151-.14l.007.01c9.46-8.24 23.457-8.555 33.277-.747l-5.407 12.864 9.733-8.492c6.991 8.905 7.381 21.319.962 30.644l.027.008c-.106.157-.227.3-.336.453-.205.288-.415.57-.63.848-.277.356-.564.7-.857 1.04-.221.255-.44.514-.67.76-.337.36-.69.702-1.046 1.041-.207.198-.405.406-.619.597-.56.5-1.138.973-1.736 1.422-.21.157-.432.296-.646.446-.42.295-.842.586-1.278.856-.27.167-.548.32-.824.477-.4.228-.803.448-1.214.654-.291.146-.585.285-.881.42-.423.192-.85.37-1.282.54-.29.114-.578.23-.872.333-.484.17-.976.319-1.471.46-.25.073-.496.155-.748.219-.742.19-1.492.35-2.252.474-.142.023-.288.032-.431.053-.63.091-1.262.165-1.9.21-.274.02-.55.022-.825.033-.516.02-1.032.03-1.55.02-.303-.007-.605-.023-.909-.04-.505-.029-1.01-.073-1.517-.132-.299-.035-.597-.069-.897-.114-.542-.083-1.084-.19-1.625-.308-.036-.008-.071-.012-.107-.02-2.083 6.093-4.205 12.174-6.365 18.241 5.325-4.787 12.39-7.167 19.527-6.579 7.138.588 13.717 4.093 18.186 9.687l-8.998 9.948 12.183-4.862c2.96 6.204 3.334 13.328 1.041 19.808-.794 2.277-1.907 4.43-3.306 6.394-6.159 8.71-17.013 12.777-27.382 10.26-10.368-2.517-18.149-11.107-19.627-21.67-.229.61-.45 1.23-.68 1.84-2.378 6.325-5.337 14.196-11.279 19.886-4.028 3.858-8.984 6.305-13.738 8.374-3.097 1.347-6.234 2.592-9.413 3.736-3.533 2.142-7.525 3.414-11.647 3.71-5.015 1.393-10.094 2.556-15.22 3.454l-3.197.55c-2.872.492-5.817.999-8.74 1.582.42.125.842.244 1.26.392 10.688 3.76 17.716 14 17.38 25.321l-20.038 6.149 18.133 2.878c-3.372 8.284-10.761 14.257-19.57 15.82-8.807 1.563-17.8-1.504-23.818-8.122.184.617.369 1.232.555 1.847.368 1.22.733 2.435 1.084 3.638 4.77 16.39 2.717 29.282-5.783 36.301l-4.613-5.582c8.273-6.832 5.706-20.911 3.441-28.697-.344-1.18-.703-2.374-1.065-3.573-3.108-10.32-6.63-22.02-2.068-32.769 6.877-16.202 26.695-19.595 42.62-22.32z"/>
        <path fill="#3F3D56" fill-rule="nonzero" d="M279.652 275H139.348c-9.581 0-17.348-7.792-17.348-17.404V193.11c0-1.893.775-3.702 2.145-5.004l74.347-70.703c6.172-5.87 15.844-5.87 22.016 0l70.886 67.411c3.58 3.403 5.606 8.133 5.606 13.08v59.703c0 4.616-1.828 9.043-5.081 12.307-3.254 3.263-7.666 5.097-12.267 5.097z"/>
        <path fill="#000" fill-rule="nonzero" d="M122 195h174v70.47c0 5.815-4.702 10.53-10.503 10.53H132.503c-5.8 0-10.503-4.715-10.503-10.53V195z" opacity=".1"/>
        <rect width="129" height="129" x="145" y="139" fill="#1D7CD5" fill-rule="nonzero" rx="26.181"/>
        <path fill="#000" fill-rule="nonzero" d="M274 197L274 268 145 268 145 197 209.5 228.221z" opacity=".1"/>
        <path fill="#3F3D56" fill-rule="nonzero" d="M209.5 232.499l-82.685-40.163c-1.04-.505-2.265-.437-3.243.18-.978.616-1.572 1.695-1.572 2.855v69.102c0 2.792 1.104 5.47 3.068 7.444 1.965 1.974 4.63 3.083 7.407 3.083h154.05c2.778 0 5.442-1.11 7.407-3.083 1.964-1.975 3.068-4.652 3.068-7.444v-67.918c0-1.416-.725-2.732-1.918-3.485-1.194-.752-2.689-.835-3.957-.219L209.5 232.5z"/>
        <path fill="#F2F2F2" fill-rule="nonzero" d="M156 151H192V156H156zM153 169H260V172H153zM153 179H260V182H153zM153 190H260V193H153z"/>
        <path stroke="#3F3D56" d="M57 274.5h300"/>
        <path fill="#46455B" fill-rule="nonzero" d="M34 230c0 21.557 13.418 39 30 39"/>
        <path fill="#1D7CD5" fill-rule="nonzero" d="M64 269c0-21.557 15.207-39 34-39M45 232c0 20.451 8.498 37 19 37"/>
        <path fill="#46455B" fill-rule="nonzero" d="M65 269c0-27.637 17.443-50 39-50"/>
        <path fill="#A8A8A8" fill-rule="nonzero" d="M58 269.288s4.3-.13 5.596-1.04c1.296-.908 6.614-1.993 6.936-.536.321 1.458 6.462 7.248 1.607 7.287-4.855.038-11.28-.745-12.573-1.52-1.294-.776-1.566-4.191-1.566-4.191z"/>
        <path fill="#000" fill-rule="nonzero" d="M72.227 274.466c-4.855.04-11.281-.781-12.575-1.595-.985-.62-1.377-2.845-1.508-3.871l-.144.006s.272 3.583 1.566 4.397c1.293.814 7.72 1.636 12.574 1.596 1.401-.012 1.886-.527 1.859-1.29-.195.46-.73.749-1.772.757z" opacity=".2"/>
        <path fill="#A0616A" fill-rule="nonzero" d="M296.533 112.213c-.222 1.986-1.73 3.586-2.29 5.504-.841 2.887.614 5.985 2.604 8.233 3.243 3.626 7.797 5.797 12.645 6.03.705.061 1.415-.016 2.09-.23.603-.243 1.146-.616 1.591-1.091 1.499-1.511 2.303-3.605 2.624-5.713.32-2.108.196-4.256.07-6.384.001-.44-.079-.877-.234-1.288-.205-.392-.486-.738-.826-1.02-1.079-.993-2.267-1.86-3.542-2.583-.576-.26-1.085-.65-1.484-1.14-.241-.42-.397-.885-.46-1.366l-.39-2.002c-.07-.577-.267-1.132-.575-1.624-.692-.936-2.014-1.063-3.174-1.11l-4.25-.167c-1.322-.052-3.063-.432-4.354-.172-1.205.244-.805 1.359-.586 2.374.318 1.226.499 2.483.54 3.75z"/>
        <path fill="#000" fill-rule="nonzero" d="M296.533 112.213c-.222 1.986-1.73 3.586-2.29 5.504-.841 2.887.614 5.985 2.604 8.233 3.243 3.626 7.797 5.797 12.645 6.03.705.061 1.415-.016 2.09-.23.603-.243 1.146-.616 1.591-1.091 1.499-1.511 2.303-3.605 2.624-5.713.32-2.108.196-4.256.07-6.384.001-.44-.079-.877-.234-1.288-.205-.392-.486-.738-.826-1.02-1.079-.993-2.267-1.86-3.542-2.583-.576-.26-1.085-.65-1.484-1.14-.241-.42-.397-.885-.46-1.366l-.39-2.002c-.07-.577-.267-1.132-.575-1.624-.692-.936-2.014-1.063-3.174-1.11l-4.25-.167c-1.322-.052-3.063-.432-4.354-.172-1.205.244-.805 1.359-.586 2.374.318 1.226.499 2.483.54 3.75z" opacity=".1"/>
        <path fill="#605D82" fill-rule="nonzero" d="M322.722 200.72l-1.775 19.66c-.463 5.156-.935 10.333-1.843 15.423-.314 1.754-.681 3.498-1.117 5.228-1.213 4.803-2.973 9.497-3.54 14.421-.019.142-.033.287-.048.432-.064 1.089-.268 2.164-.607 3.2-.284.752-.72 1.437-1.028 2.18-.612 1.485-.693 3.127-.767 4.736-2.155-1.224-4.513-2.039-6.958-2.403-1.18-.178-2.495-.305-3.299-1.195-.89-.985-.791-2.491-.642-3.813l1.404-12.311c.153-1.765.45-3.514.887-5.229.162-.57.356-1.132.553-1.693.272-.773.547-1.546.753-2.34.297-1.283.505-2.585.621-3.897.481-4.13 1.061-8.25 1.569-12.377l.027-.218c.762-6.255 1.341-12.54 1.174-18.84-.024-.933-.063-1.866-.123-2.802-.083-1.355-.206-2.074.906-2.922 1.227-.936 2.844-1.59 4.248-2.204.756-.332 9.08-3.317 9.273-2.662.39 1.397.596 2.84.61 4.292.006 1.782-.087 3.563-.278 5.335z"/>
        <path fill="#000" fill-rule="nonzero" d="M320 235.123c-.31 1.736-.674 3.463-1.105 5.175-1.2 4.754-2.941 9.401-3.503 14.275-.018.14-.032.284-.047.427-3.671-5.301-6.763-11.002-10.345-16.36.269-.765.54-1.53.745-2.316.294-1.27.5-2.559.615-3.858.475-4.087 1.049-8.166 1.551-12.25l.027-.216c.21.867.51 1.71.895 2.513 2.406 4.942 8.123 7.44 10.919 12.17.085.147.168.294.248.44z" opacity=".1"/>
        <path fill="#605D82" fill-rule="nonzero" d="M289.014 191.229c.124 3.993.767 7.95 1.409 11.894l1.324 8.136c.724 4.454 1.478 8.998 3.598 12.986 1.586 2.984 3.87 5.53 5.937 8.207 5.081 6.581 8.898 14.036 13.716 20.81 1.4 1.968 3.403 4.098 5.793 3.687 1.568-.27 2.707-1.569 3.94-2.57 1.454-1.18 3.206-2.043 4.35-3.523 1.144-1.48 1.368-3.938-.182-4.99-.56-.31-1.156-.552-1.773-.722-2.403-.909-3.957-3.24-4.947-5.599-.99-2.358-1.588-4.894-2.907-7.087-2.864-4.765-8.72-7.281-11.185-12.261-1.38-2.79-1.512-6.005-1.618-9.112l-.269-7.92c-.03-.867-.052-1.767.302-2.56.943-2.108 3.79-2.304 6.095-2.571 2.616-.305 5.151-1.1 7.47-2.343 1.327-.713 2.625-1.622 3.335-2.945.648-1.208.737-2.624.813-3.991l.799-14.354c.068-1.235.131-2.512-.307-3.67-1.1-2.907-4.791-3.857-7.912-3.718-5.807.258-11.168 2.742-16.644 4.419-1.356.425-2.733.782-4.125 1.07-1.23.245-2.717.143-3.889.536-2.084.699-2.031 5.23-2.327 7.11-.61 3.661-.877 7.37-.796 11.08z"/>
        <path fill="#535070" fill-rule="nonzero" d="M320.168 258.287c.517.514.687 1.267.821 1.978.747 3.945 1.136 7.949 1.161 11.962-.034.374.042.75.219 1.084.146.198.343.355.571.452 1.495.702 3.23-.276 4.476-1.351 2.31-1.993 4.263-4.667 4.394-7.688-.024-.778.004-1.557.083-2.331.203-1.138.877-2.129 1.471-3.124 1.011-1.695 1.827-3.495 2.432-5.369.227-.703.378-1.59-.182-2.08-.199-.154-.424-.27-.666-.341l-6.752-2.47c-.586-.214-2.042 3.47-2.273 3.873-.565.985-1.127 1.545-2.261 1.772-1.158.232-2.536-.101-3.617.468-1.827.962-.911 2.137.123 3.165zM310.339 260.156c-.12-.248-.287-.468-.49-.647-.3-.197-.638-.317-.99-.35-1.228-.216-2.682-.359-3.53.59-.793.888-.657 2.336-1.32 3.334-.21.316-.495.576-.678.91-.226.51-.328 1.071-.297 1.633-.034 1.546-.068 3.095.035 4.638.086 1.293.295 2.648 1.073 3.661 1.249 1.626 3.5 1.86 5.5 1.966l1.618.085c.446.056.898.013 1.327-.126.536-.258.949-.73 1.144-1.31.843-2.176-.492-4.522-1.314-6.708-.944-2.512-.775-5.301-2.078-7.676z"/>
        <path fill="#3F3D56" fill-rule="nonzero" d="M296.622 101.65c-.02-.216.011-.433.091-.634.24-.425.865-.309 1.337-.19 1.897.48 3.896.046 5.85.158 1.952.112 4.153 1.092 4.545 3.016 1.418-1.009 2.64-2.27 3.607-3.719.542-.814 1.014-1.747.94-2.723-.106-1.409-1.283-2.462-2.374-3.355l-3.25-2.663c-.426-.393-.918-.708-1.454-.928-.75-.258-1.569-.135-2.362-.135-2.366.002-4.888-1.079-6.992.007-.878.453-1.54 1.23-2.177 1.988l-2.9 3.446c-.22.22-.379.49-.464.789-.083.42.132.836.207 1.258.137.77-.193 1.591.061 2.33.422 1.228 1.906 1.401 2.814 2.105.338.262.868 1.15 1.272 1.14.727-.02 1.23-1.324 1.249-1.89z"/>
        <circle cx="301.5" cy="101.5" r="9.5" fill="#A0616A" fill-rule="nonzero"/>
        <path fill="#3F3D56" fill-rule="nonzero" d="M303.839 123.172c-.661-1.88-2.472-3.117-4.476-3.058-.28.052-.568.015-.826-.104-.146-.11-.262-.255-.34-.42-.576-1.031-1.04-2.12-1.383-3.248-.152-.5-.359-1.087-.867-1.217-.429-.055-.854.128-1.105.477-.241.345-.505.675-.79.986-1.193 1.06-3.31.093-4.576 1.065-.207.16-.378.363-.595.507-.218.13-.453.23-.697.297-2.447.792-4.846 1.725-7.184 2.792.843 5.039 1.706 10.165 3.682 14.88.94 2.245 2.005 4.442 2.758 6.755 1.668 5.124 1.742 10.607 1.761 15.992.013 3.686-.006 7.45-1.207 10.938-.323.77-.55 1.577-.678 2.402-.073.831.17 1.748.85 2.24.392.255.842.412 1.31.457 2.082.303 4.18-.247 6.23-.718 5.493-1.263 11.095-1.985 16.687-2.706l9.37-1.208c.672-.045 1.33-.214 1.94-.497 1.714-.932 1.876-3.492.812-5.12-.51-.78-1.231-1.42-1.66-2.247-.429-.827-.465-1.983.273-2.556 1.502-1.166 1.054-3.328 1.126-5.219.2-5.287.173-10.576-.082-15.868-.075-1.095-.093-2.194-.053-3.29.167-1.86.513-3.699 1.034-5.493L328 118.863c-.744-1.166-2.168-1.906-3.517-2.243-1.35-.336-2.754-.435-4.083-.843-2.722-.837-5.145-2.962-7.987-2.764-.215.004-.427.055-.62.15-.64.36-.54 1.278-.58 2.008-.09 1.616-1.288 2.966-2.61 3.913-1.322.946-2.832 1.637-4.046 2.716-.436.326-.7.83-.718 1.372z"/>
        <path fill="#A0616A" fill-rule="nonzero" d="M266.048 133.591c-.63.417-1.3.77-1.998 1.05-.684.208-1.33.528-1.913.949-.269.237-.494.522-.666.84-.654 1.186-.625 2.642.076 3.8.702 1.158 1.964 1.835 3.296 1.765.868-.1 1.713-.357 2.493-.76l6.698-2.965c1.133-.502 2.358-1.09 2.894-2.227.062-.107.085-.232.065-.354-.054-.129-.152-.234-.275-.295-1.511-1.003-2.832-2.276-3.9-3.758-.275-.381-.611-1.281-1-1.51-1.418-.834-4.635 2.713-5.77 3.465zM337.212 131l2.504 2.785c.538.598 1.076 1.197 1.566 1.833 1.203 1.614 2.169 3.385 2.868 5.26.544 1.391.996 2.873.806 4.35-.127.757-.336 1.498-.627 2.211-.458 1.372-1.027 2.706-1.701 3.99-.567.977-1.207 1.91-1.915 2.795-1.938 2.502-4.06 4.865-6.347 7.07-.856.825-1.215 2.16-1.588 3.275-.687 2.057-2.323 3.66-3.904 5.18-.508.522-1.07.993-1.677 1.404-.908.57-1.97.864-3.05.846-.474.003-.942-.091-1.375-.277-1.082-.5-1.632-1.719-1.745-2.88-.1-1.055.08-2.116.527-3.082 1.436-3.1 5.126-4.442 7.734-6.704 1.53-1.326 2.7-2.992 3.853-4.64.783-1.028 1.437-2.144 1.948-3.325.582-1.513.356-3.305.865-4.843.215-.65.597-1.238.828-1.883.232-.645.29-1.41-.115-1.968-.305-.355-.694-.632-1.133-.809-1.667-.823-3.533-1.883-3.851-3.676-.128-.994.14-1.998.746-2.807.604-.799 1.31-1.52 2.1-2.144.73-.628 1.955-1.334 2.683-1.961z"/>
        <path fill="#A0616A" fill-rule="nonzero" d="M264.954 136.58c-.458-.908-1.03-1.835-1.953-2.287-.905-.386-1.932-.39-2.84-.012-.895.38-1.734.878-2.491 1.481l-2.234 1.62c-.507.326-.955.733-1.327 1.203-.352.57-.587 1.204-.69 1.863-.39 1.505-.509 3.064-.352 4.61.355 2.476 1.874 4.638 3.545 6.524 1.045 1.178 2.335 2.367 3.924 2.417.686.021 1.449-.244 1.734-.858.099-.243.151-.502.155-.764.171-2.763-.834-5.461-2.006-7.978-.374-.658-.595-1.39-.647-2.143-.008-.127.025-.253.096-.36.1-.103.236-.168.381-.182 1.604-.312 4.368.913 5.493-.839.73-1.135-.27-3.264-.788-4.294z"/>
        <path fill="#3F3D56" fill-rule="nonzero" d="M295.622 98.65c-.02-.216.011-.433.091-.634.24-.425.865-.309 1.337-.19 1.897.48 3.896.046 5.85.158 1.952.112 4.153 1.092 4.545 3.016 1.418-1.009 2.64-2.27 3.607-3.719.542-.814 1.014-1.747.94-2.723-.106-1.409-1.283-2.462-2.374-3.355l-3.25-2.663c-.426-.393-.918-.708-1.454-.928-.75-.258-1.569-.135-2.362-.135-2.366.002-4.888-1.079-6.992.007-.878.453-1.54 1.23-2.177 1.988l-2.9 3.446c-.22.22-.379.49-.464.789-.083.42.132.836.207 1.258.137.77-.193 1.591.061 2.33.422 1.228 1.906 1.401 2.814 2.105.338.262.868 1.15 1.272 1.14.727-.02 1.23-1.324 1.249-1.89zM275.89 124.206c-.37.25-.693.569-.957.94-.335.534-.404 1.208-.692 1.773-.616 1.207-2.057 1.637-2.957 2.627-.143.136-.242.316-.284.514-.004.269.081.53.242.74l4.336 7.187c1.444.134 2.83-.82 4.274-.693.54.047 1.091.244 1.608.076.37-.173.717-.397 1.032-.666.862-.574 2.01-.641 2.733-1.4.694-.726.782-1.865.774-2.896.012-.896-.075-1.79-.258-2.665-.638-2.759-2.64-4.876-3.894-7.32-.611-1.19-.943-1.886-2.236-1.069-1.3.821-2.498 1.909-3.72 2.852zM329.951 120.392c.87.55 1.654 1.22 2.328 1.987.705.885 1.104 1.97 1.782 2.875.656.878 1.55 1.558 2.294 2.367 1.13 1.226 1.894 2.722 2.645 4.198-1.834 2.33-3.835 4.533-5.986 6.59-.24.276-.555.478-.909.583-.489.05-.971-.141-1.285-.51-.333-.341-.57-.76-.888-1.115-.752-.755-1.754-1.228-2.829-1.333-1.065-.1-2.137-.114-3.205-.043-.235.026-.472-.013-.685-.112-.158-.106-.287-.25-.373-.417-1.253-2.077-.85-4.685-.408-7.055l1.014-5.44c.147-1.038.43-2.054.844-3.022.384-.8 1.243-2.157 2.3-1.917 1.064.241 2.465 1.736 3.361 2.364z"/>
        <circle cx="150" cy="141" r="15" fill="#FFF" fill-rule="nonzero"/>
        <path fill="#57B894" fill-rule="nonzero" d="M150 124c-9.941 0-18 8.059-18 18s8.059 18 18 18 18-8.059 18-18c-.03-9.93-8.07-17.97-18-18zm-3.695 27.597l-9.225-9.225 2.587-2.587 6.646 6.646 14.028-14.028 2.588 2.587-16.624 16.607z"/>
    </g>
</svg>
